<?xml version="1.0"?>
<svg xmlns="http://www.w3.org/2000/svg" height="512px" viewBox="1 -27 511.99931 511" width="512px" class=""><g><path d="m256 .5c-141.152344 0-256 86.128906-256 192 0 73.933594 56.128906 140.800781 144 172.6875v60.6875c.003906 17.671875 14.332031 31.996094 32.007812 31.992188 8.480469 0 16.617188-3.371094 22.617188-9.367188l64-64c138.140625-2.738281 249.375-87.808594 249.375-192 0-105.871094-114.847656-192-256-192zm0 352c-4.242188 0-8.3125 1.6875-11.3125 4.6875l-68.6875 68.6875v-72.113281c-.007812-6.980469-4.539062-13.152344-11.199219-15.246094-80.640625-25.890625-132.800781-83.199219-132.800781-146.015625 0-88.226562 100.480469-160 224-160s224 71.773438 224 160c0 88.222656-100.480469 160-224 160zm0 0" data-original="#000000" class="active-path" data-old_color="#000000" fill="#FFFFFF"/><path d="m112 128.5h288v32h-288zm0 0" data-original="#000000" class="active-path" data-old_color="#000000" fill="#FFFFFF"/><path d="m112 224.5h288v32h-288zm0 0" data-original="#000000" class="active-path" data-old_color="#000000" fill="#FFFFFF"/></g> </svg>
